# xmcd
#
# Track frame offsets:
#	150
#	19883
#	40730
#	53318
#	71617
#	90749
#	100351
#	116395
#	131997
#	147483
#
# Disc length: 2173 seconds
#
# Revision: 1
# Processed by: cddbd v1.4PL0 Copyright (c) Steve Scherf et al.
# Submitted via: audiograbber 1.81.03
#
DISCID=88087b0a
DTITLE=Webster - What Love Is
DYEAR=2000
DGENRE=Blues
TTITLE0=Let Me Love You
TTITLE1=Limousine Linda
TTITLE2=Hideaway
TTITLE3=No Matter What You Do
TTITLE4=You Said You Loved Me
TTITLE5=The Shuttle
TTITLE6=Desires
TTITLE7=What Love Is
TTITLE8=When Your Lips...
TTITLE9=Icy Bridges
EXTD=Disc by Colorado group, plays out of Fairplay, CO.
EXTT0=
EXTT1=
EXTT2=
EXTT3=
EXTT4=
EXTT5=
EXTT6=
EXTT7=
EXTT8=
EXTT9=
PLAYORDER=
